<svg xmlns="http://www.w3.org/2000/svg" width="980" height="220" viewBox="0 0 980 220">
  <rect width="980" height="220" fill="#f6f8fb"/>
  <text x="32" y="38" fill="#0f172a" font-family="Microsoft YaHei, Arial, sans-serif" font-size="20" font-weight="700">方案 A：紧凑标签型</text>
  <text x="32" y="66" fill="#64748b" font-family="Microsoft YaHei, Arial, sans-serif" font-size="14">保留当前思路，缩短高度；适合同时浏览较多产品。</text>
  <rect x="32" y="92" width="916" height="96" rx="8" fill="#ffffff" stroke="#cbd5e1"/>
  <circle cx="64" cy="140" r="15" fill="#f8fafc" stroke="#94a3b8"/>
  <path d="M58 137l6 6 6-6" fill="none" stroke="#475569" stroke-width="2" stroke-linecap="round" stroke-linejoin="round"/>
  <rect x="94" y="119" width="38" height="22" rx="11" fill="#0d6efd"/>
  <text x="113" y="134" text-anchor="middle" fill="#ffffff" font-family="Arial, sans-serif" font-size="12" font-weight="700">C3</text>
  <text x="146" y="136" fill="#172554" font-family="Microsoft YaHei, Arial, sans-serif" font-size="17" font-weight="700">贵州茅台</text>
  <rect x="242" y="114" width="128" height="28" rx="14" fill="#f8fafc" stroke="#d7dee8"/>
  <text x="306" y="133" text-anchor="middle" fill="#475569" font-family="Microsoft YaHei, Arial, sans-serif" font-size="13">股票 600519</text>
  <rect x="380" y="114" width="104" height="28" rx="14" fill="#f8fafc" stroke="#d7dee8"/>
  <text x="432" y="133" text-anchor="middle" fill="#475569" font-family="Microsoft YaHei, Arial, sans-serif" font-size="13">市场 A股</text>
  <rect x="494" y="114" width="92" height="28" rx="14" fill="#f8fafc" stroke="#d7dee8"/>
  <text x="540" y="133" text-anchor="middle" fill="#475569" font-family="Microsoft YaHei, Arial, sans-serif" font-size="13">比例 50%</text>
  <rect x="759" y="126" width="30" height="16" rx="8" fill="#dbe3ee"/>
  <circle cx="767" cy="134" r="6" fill="#ffffff" stroke="#94a3b8"/>
  <text x="800" y="138" fill="#475569" font-family="Microsoft YaHei, Arial, sans-serif" font-size="14">固定</text>
  <rect x="874" y="117" width="38" height="38" rx="6" fill="#ffffff" stroke="#e11d48"/>
  <path d="M886 127h14m-12 2v14m4-14v14m4-14v14m-11-16h16m-10-3h4l1 3h-6z" fill="none" stroke="#e11d48" stroke-width="1.5" stroke-linecap="round"/>
  <text x="32" y="210" fill="#64748b" font-family="Microsoft YaHei, Arial, sans-serif" font-size="13">特点：高度最低，扫描速度快；摘要全部使用轻量标签。</text>
</svg>
