<svg xmlns="http://www.w3.org/2000/svg" width="980" height="240" viewBox="0 0 980 240">
  <rect width="980" height="240" fill="#f6f8fb"/>
  <text x="32" y="38" fill="#0f172a" font-family="Microsoft YaHei, Arial, sans-serif" font-size="20" font-weight="700">方案 B：两行摘要型</text>
  <text x="32" y="66" fill="#64748b" font-family="Microsoft YaHei, Arial, sans-serif" font-size="14">产品标题和股票信息分层展示，阅读更稳；适合名称较长的产品。</text>
  <rect x="32" y="92" width="916" height="116" rx="8" fill="#ffffff" stroke="#cbd5e1"/>
  <rect x="32" y="92" width="6" height="116" rx="3" fill="#0d6efd"/>
  <circle cx="70" cy="150" r="15" fill="#f8fafc" stroke="#94a3b8"/>
  <path d="M64 147l6 6 6-6" fill="none" stroke="#475569" stroke-width="2" stroke-linecap="round" stroke-linejoin="round"/>
  <rect x="100" y="119" width="38" height="22" rx="11" fill="#0d6efd"/>
  <text x="119" y="134" text-anchor="middle" fill="#ffffff" font-family="Arial, sans-serif" font-size="12" font-weight="700">C3</text>
  <text x="154" y="137" fill="#172554" font-family="Microsoft YaHei, Arial, sans-serif" font-size="18" font-weight="700">贵州茅台</text>
  <text x="154" y="169" fill="#64748b" font-family="Microsoft YaHei, Arial, sans-serif" font-size="14">股票代码</text>
  <text x="218" y="169" fill="#0f172a" font-family="Arial, sans-serif" font-size="14" font-weight="700">600519</text>
  <line x1="302" y1="155" x2="302" y2="177" stroke="#d7dee8"/>
  <text x="326" y="169" fill="#64748b" font-family="Microsoft YaHei, Arial, sans-serif" font-size="14">市场</text>
  <text x="366" y="169" fill="#0f172a" font-family="Microsoft YaHei, Arial, sans-serif" font-size="14" font-weight="700">A股 cn</text>
  <line x1="444" y1="155" x2="444" y2="177" stroke="#d7dee8"/>
  <text x="468" y="169" fill="#64748b" font-family="Microsoft YaHei, Arial, sans-serif" font-size="14">比例</text>
  <text x="508" y="169" fill="#0f172a" font-family="Arial, sans-serif" font-size="14" font-weight="700">50%</text>
  <rect x="759" y="142" width="30" height="16" rx="8" fill="#dbe3ee"/>
  <circle cx="767" cy="150" r="6" fill="#ffffff" stroke="#94a3b8"/>
  <text x="800" y="154" fill="#475569" font-family="Microsoft YaHei, Arial, sans-serif" font-size="14">固定</text>
  <rect x="874" y="133" width="38" height="38" rx="6" fill="#ffffff" stroke="#e11d48"/>
  <path d="M886 143h14m-12 2v14m4-14v14m4-14v14m-11-16h16m-10-3h4l1 3h-6z" fill="none" stroke="#e11d48" stroke-width="1.5" stroke-linecap="round"/>
  <text x="32" y="230" fill="#64748b" font-family="Microsoft YaHei, Arial, sans-serif" font-size="13">特点：信息层级最清楚，长产品名不容易挤压摘要；卡片高度略高。</text>
</svg>
