<svg xmlns="http://www.w3.org/2000/svg" width="980" height="620" viewBox="0 0 980 620">
  <rect width="980" height="620" fill="#f6f8fb"/>
  <text x="32" y="42" fill="#0f172a" font-family="Microsoft YaHei, Arial, sans-serif" font-size="22" font-weight="700">展开态方案：保持方案 C 的工具栏头部</text>
  <text x="32" y="72" fill="#64748b" font-family="Microsoft YaHei, Arial, sans-serif" font-size="14">展开后头部仍是一行，和折叠态保持一致；编辑内容在下方展开，减少视觉跳变。</text>

  <rect x="32" y="104" width="916" height="458" rx="10" fill="#ffffff" stroke="#cbd5e1"/>

  <rect x="32" y="104" width="916" height="68" rx="10" fill="#f8fafc" stroke="#cbd5e1"/>
  <path d="M32 162h916" stroke="#e2e8f0"/>
  <circle cx="64" cy="138" r="15" fill="#0d6efd"/>
  <path d="M58 141l6-6 6 6" fill="none" stroke="#ffffff" stroke-width="2.2" stroke-linecap="round" stroke-linejoin="round"/>

  <rect x="92" y="126" width="38" height="24" rx="12" fill="#e8f1ff" stroke="#cfe2ff"/>
  <text x="111" y="143" text-anchor="middle" fill="#0d6efd" font-family="Arial, sans-serif" font-size="12" font-weight="700">C3</text>

  <text x="148" y="144" fill="#0f172a" font-family="Microsoft YaHei, Arial, sans-serif" font-size="16" font-weight="700">贵州茅台</text>
  <text x="248" y="144" fill="#64748b" font-family="Arial, sans-serif" font-size="14">600519</text>
  <circle cx="318" cy="138" r="3" fill="#cbd5e1"/>
  <text x="336" y="144" fill="#475569" font-family="Microsoft YaHei, Arial, sans-serif" font-size="14">A股 cn</text>
  <circle cx="422" cy="138" r="3" fill="#cbd5e1"/>
  <text x="440" y="144" fill="#475569" font-family="Microsoft YaHei, Arial, sans-serif" font-size="14">比例</text>
  <text x="478" y="144" fill="#0f172a" font-family="Arial, sans-serif" font-size="14" font-weight="700">50%</text>

  <rect x="745" y="130" width="34" height="18" rx="9" fill="#0d6efd"/>
  <circle cx="770" cy="139" r="7" fill="#ffffff"/>
  <text x="790" y="144" fill="#475569" font-family="Microsoft YaHei, Arial, sans-serif" font-size="14">固定</text>
  <rect x="874" y="119" width="38" height="38" rx="6" fill="#ffffff" stroke="#e11d48"/>
  <path d="M886 129h14m-12 2v14m4-14v14m4-14v14m-11-16h16m-10-3h4l1 3h-6z" fill="none" stroke="#e11d48" stroke-width="1.5" stroke-linecap="round"/>

  <g font-family="Microsoft YaHei, Arial, sans-serif">
    <text x="56" y="206" fill="#334155" font-size="14" font-weight="700">基础设置</text>

    <text x="56" y="239" fill="#64748b" font-size="12">产品名称</text>
    <rect x="56" y="250" width="250" height="42" rx="6" fill="#ffffff" stroke="#d7dee8"/>
    <text x="72" y="277" fill="#0f172a" font-size="14">贵州茅台</text>

    <text x="326" y="239" fill="#64748b" font-size="12">股票代码</text>
    <rect x="326" y="250" width="170" height="42" rx="6" fill="#ffffff" stroke="#d7dee8"/>
    <text x="342" y="277" fill="#0f172a" font-size="14">600519</text>

    <text x="516" y="239" fill="#64748b" font-size="12">市场</text>
    <rect x="516" y="250" width="140" height="42" rx="6" fill="#ffffff" stroke="#d7dee8"/>
    <text x="532" y="277" fill="#0f172a" font-size="14">cn</text>
    <path d="M632 266l6 6 6-6" fill="none" stroke="#64748b" stroke-width="1.8" stroke-linecap="round"/>

    <text x="676" y="239" fill="#64748b" font-size="12">比例 %</text>
    <rect x="676" y="250" width="120" height="42" rx="6" fill="#ffffff" stroke="#d7dee8"/>
    <text x="692" y="277" fill="#0f172a" font-size="14">50</text>

    <text x="816" y="239" fill="#64748b" font-size="12">价格模式</text>
    <rect x="816" y="250" width="96" height="42" rx="6" fill="#ffffff" stroke="#d7dee8"/>
    <text x="832" y="277" fill="#0f172a" font-size="14">收盘价</text>

    <text x="56" y="326" fill="#64748b" font-size="12">Google Sheet 链接</text>
    <rect x="56" y="337" width="580" height="42" rx="6" fill="#ffffff" stroke="#d7dee8"/>
    <text x="72" y="364" fill="#94a3b8" font-size="14">粘贴 Google Sheet 链接后自动识别</text>

    <text x="656" y="326" fill="#64748b" font-size="12">K线复权</text>
    <rect x="656" y="337" width="140" height="42" rx="6" fill="#ffffff" stroke="#d7dee8"/>
    <text x="672" y="364" fill="#0f172a" font-size="14">前复权</text>

    <text x="816" y="326" fill="#64748b" font-size="12">状态</text>
    <rect x="816" y="337" width="96" height="42" rx="21" fill="#ecfdf5" stroke="#bbf7d0"/>
    <circle cx="838" cy="358" r="5" fill="#16a34a"/>
    <text x="852" y="363" fill="#166534" font-size="13">已识别</text>
  </g>

  <rect x="56" y="414" width="856" height="110" rx="8" fill="#fbfdff" stroke="#e2e8f0"/>
  <text x="76" y="442" fill="#334155" font-family="Microsoft YaHei, Arial, sans-serif" font-size="14" font-weight="700">参数行</text>
  <rect x="76" y="462" width="92" height="34" rx="6" fill="#ffffff" stroke="#d7dee8"/>
  <text x="122" y="484" text-anchor="middle" fill="#475569" font-family="Arial, sans-serif" font-size="12">0.035%</text>
  <rect x="178" y="462" width="92" height="34" rx="6" fill="#ffffff" stroke="#d7dee8"/>
  <text x="224" y="484" text-anchor="middle" fill="#475569" font-family="Arial, sans-serif" font-size="12">0.3</text>
  <rect x="280" y="462" width="92" height="34" rx="6" fill="#ffffff" stroke="#d7dee8"/>
  <text x="326" y="484" text-anchor="middle" fill="#475569" font-family="Arial, sans-serif" font-size="12">0.8</text>
  <rect x="382" y="462" width="92" height="34" rx="6" fill="#ffffff" stroke="#d7dee8"/>
  <text x="428" y="484" text-anchor="middle" fill="#475569" font-family="Arial, sans-serif" font-size="12">1.2</text>
  <rect x="484" y="462" width="92" height="34" rx="6" fill="#ffffff" stroke="#d7dee8"/>
  <text x="530" y="484" text-anchor="middle" fill="#475569" font-family="Arial, sans-serif" font-size="12">2.0</text>
  <rect x="746" y="455" width="72" height="40" rx="6" fill="#ffffff" stroke="#0d6efd"/>
  <text x="782" y="481" text-anchor="middle" fill="#0d6efd" font-family="Microsoft YaHei, Arial, sans-serif" font-size="13">粘贴</text>
  <rect x="828" y="455" width="64" height="40" rx="6" fill="#ffffff" stroke="#d7dee8"/>
  <text x="860" y="481" text-anchor="middle" fill="#475569" font-family="Microsoft YaHei, Arial, sans-serif" font-size="13">复制</text>

  <text x="32" y="596" fill="#64748b" font-family="Microsoft YaHei, Arial, sans-serif" font-size="13">落地要点：展开态不再换成“卡片标题 + 标签”的另一套视觉，而是保留同一条产品工具栏，下面只展开编辑表单。</text>
</svg>
