<svg width="1600" height="1000" viewBox="0 0 1600 1000" fill="none" xmlns="http://www.w3.org/2000/svg">
  <rect width="1600" height="1000" fill="#F5F7FA"/>
  <text x="40" y="44" fill="#111827" font-family="Microsoft YaHei, Arial, sans-serif" font-size="26" font-weight="700">方案 1：紧凑运营后台</text>
  <text x="40" y="76" fill="#667085" font-family="Microsoft YaHei, Arial, sans-serif" font-size="15">保留当前信息架构，压缩顶部和筛选区，让表格首屏可见更多行。</text>
  <g transform="translate(1220 32)">
    <rect width="92" height="38" rx="6" fill="#FFFFFF" stroke="#CBD5E1"/>
    <text x="24" y="24" fill="#475569" font-family="Microsoft YaHei, Arial, sans-serif" font-size="14">刷新</text>
    <rect x="104" width="112" height="38" rx="6" fill="#FFFFFF" stroke="#16A34A"/>
    <text x="126" y="24" fill="#15803D" font-family="Microsoft YaHei, Arial, sans-serif" font-size="14">导出 CSV</text>
    <rect x="228" width="110" height="38" rx="6" fill="#2563EB"/>
    <text x="250" y="24" fill="#FFFFFF" font-family="Microsoft YaHei, Arial, sans-serif" font-size="14">重建索引</text>
  </g>
  <g transform="translate(40 108)">
    <rect width="1520" height="130" rx="12" fill="#FFFFFF" stroke="#D7DFE8"/>
    <rect x="20" y="20" width="370" height="90" rx="8" fill="#F8FAFC" stroke="#E2E8F0"/>
    <text x="38" y="47" fill="#475569" font-family="Microsoft YaHei, Arial, sans-serif" font-size="14" font-weight="700">市场结构</text>
    <text x="38" y="92" fill="#111827" font-family="DIN Alternate, Arial, sans-serif" font-size="40" font-weight="700">73</text>
    <text x="112" y="91" fill="#64748B" font-family="Microsoft YaHei, Arial, sans-serif" font-size="13">股票总数</text>
    <rect x="210" y="48" width="142" height="8" rx="4" fill="#E2E8F0"/>
    <rect x="210" y="48" width="66" height="8" rx="4" fill="#22C55E"/>
    <rect x="276" y="48" width="76" height="8" rx="4" fill="#6366F1"/>
    <text x="210" y="84" fill="#64748B" font-family="Microsoft YaHei, Arial, sans-serif" font-size="13">A股 34</text>
    <text x="290" y="84" fill="#64748B" font-family="Microsoft YaHei, Arial, sans-serif" font-size="13">美股 39</text>
    <text x="210" y="104" fill="#64748B" font-family="Microsoft YaHei, Arial, sans-serif" font-size="13">任务 255</text>
    <g transform="translate(410 20)">
      <rect width="260" height="90" rx="8" fill="#F0FDF4" stroke="#BBF7D0"/>
      <text x="18" y="30" fill="#166534" font-family="Microsoft YaHei, Arial, sans-serif" font-size="13" font-weight="700">ReturnBeats &gt; 0%</text>
      <text x="18" y="70" fill="#14532D" font-family="DIN Alternate, Arial, sans-serif" font-size="34" font-weight="700">214</text>
      <rect x="132" y="50" width="104" height="7" rx="3.5" fill="#DCFCE7"/>
      <rect x="132" y="50" width="104" height="7" rx="3.5" fill="#16A34A"/>
      <text x="132" y="76" fill="#166534" font-family="DIN Alternate, Arial, sans-serif" font-size="18" font-weight="700">100%</text>
    </g>
    <g transform="translate(690 20)">
      <rect width="260" height="90" rx="8" fill="#F7FEE7" stroke="#D9F99D"/>
      <text x="18" y="30" fill="#4D7C0F" font-family="Microsoft YaHei, Arial, sans-serif" font-size="13" font-weight="700">ReturnBeats &gt; 20%</text>
      <text x="18" y="70" fill="#365314" font-family="DIN Alternate, Arial, sans-serif" font-size="34" font-weight="700">181</text>
      <rect x="132" y="50" width="104" height="7" rx="3.5" fill="#ECFCCB"/>
      <rect x="132" y="50" width="88" height="7" rx="3.5" fill="#65A30D"/>
      <text x="132" y="76" fill="#4D7C0F" font-family="DIN Alternate, Arial, sans-serif" font-size="18" font-weight="700">84.6%</text>
    </g>
    <g transform="translate(970 20)">
      <rect width="260" height="90" rx="8" fill="#FFFBEB" stroke="#FDE68A"/>
      <text x="18" y="30" fill="#92400E" font-family="Microsoft YaHei, Arial, sans-serif" font-size="13" font-weight="700">ReturnBeats &gt; 50%</text>
      <text x="18" y="70" fill="#854D0E" font-family="DIN Alternate, Arial, sans-serif" font-size="34" font-weight="700">147</text>
      <rect x="132" y="50" width="104" height="7" rx="3.5" fill="#FEF3C7"/>
      <rect x="132" y="50" width="72" height="7" rx="3.5" fill="#D97706"/>
      <text x="132" y="76" fill="#92400E" font-family="DIN Alternate, Arial, sans-serif" font-size="18" font-weight="700">68.7%</text>
    </g>
    <g transform="translate(1250 20)">
      <rect width="250" height="90" rx="8" fill="#FEF2F2" stroke="#FECACA"/>
      <text x="18" y="30" fill="#991B1B" font-family="Microsoft YaHei, Arial, sans-serif" font-size="13" font-weight="700">ReturnBeats &gt; 100%</text>
      <text x="18" y="70" fill="#7F1D1D" font-family="DIN Alternate, Arial, sans-serif" font-size="34" font-weight="700">107</text>
      <rect x="132" y="50" width="94" height="7" rx="3.5" fill="#FEE2E2"/>
      <rect x="132" y="50" width="47" height="7" rx="3.5" fill="#DC2626"/>
      <text x="132" y="76" fill="#991B1B" font-family="DIN Alternate, Arial, sans-serif" font-size="18" font-weight="700">50.0%</text>
    </g>
  </g>
  <g transform="translate(40 258)">
    <rect width="1520" height="104" rx="10" fill="#FFFFFF" stroke="#D7DFE8"/>
    <text x="20" y="34" fill="#111827" font-family="Microsoft YaHei, Arial, sans-serif" font-size="16" font-weight="700">查询条件</text>
    <g transform="translate(20 52)" font-family="Microsoft YaHei, Arial, sans-serif" font-size="13">
      <rect width="132" height="34" rx="5" fill="#FFFFFF" stroke="#CBD5E1"/><text x="12" y="22" fill="#334155">任务类型：全部</text>
      <rect x="148" width="150" height="34" rx="5" fill="#FFFFFF" stroke="#CBD5E1"/><text x="160" y="22" fill="#94A3B8">股票代码</text>
      <rect x="314" width="112" height="34" rx="5" fill="#FFFFFF" stroke="#CBD5E1"/><text x="326" y="22" fill="#334155">市场：全部</text>
      <rect x="442" width="214" height="34" rx="5" fill="#FFFFFF" stroke="#CBD5E1"/><text x="454" y="22" fill="#94A3B8">任务 ID</text>
      <rect x="672" width="150" height="34" rx="5" fill="#FFFFFF" stroke="#CBD5E1"/><text x="684" y="22" fill="#94A3B8">结果 ID</text>
      <rect x="838" width="142" height="34" rx="5" fill="#FFFFFF" stroke="#CBD5E1"/><text x="850" y="22" fill="#334155">任务汇总</text>
      <rect x="996" width="142" height="34" rx="5" fill="#FFFFFF" stroke="#CBD5E1"/><text x="1008" y="22" fill="#334155">仅最优</text>
      <rect x="1154" width="150" height="34" rx="5" fill="#FFFFFF" stroke="#CBD5E1"/><text x="1166" y="22" fill="#334155">超额：全部</text>
      <rect x="1320" width="138" height="34" rx="6" fill="#2563EB"/><text x="1360" y="22" fill="#FFFFFF">查询</text>
    </g>
  </g>
  <g transform="translate(40 382)">
    <rect width="1520" height="538" rx="10" fill="#FFFFFF" stroke="#D7DFE8"/>
    <rect width="1520" height="42" rx="10" fill="#F8FAFC"/>
    <g font-family="Microsoft YaHei, Arial, sans-serif" font-size="13" font-weight="700" fill="#111827">
      <text x="16" y="27">产品/股票</text><text x="140" y="27">任务名</text><text x="304" y="27">return beats</text><text x="428" y="27">结果时间</text><text x="560" y="27">参数</text><text x="760" y="27">年份/区间</text><text x="900" y="27">Return%</text><text x="1005" y="27">Annualized</text>
    </g>
    <g font-family="Microsoft YaHei, Arial, sans-serif" font-size="13" fill="#334155">
      <line x1="0" y1="42" x2="1520" y2="42" stroke="#E2E8F0"/>
      <text x="16" y="76">QQQ</text><text x="140" y="76">C5-QQQ-Invesco</text><text x="304" y="76" fill="#15803D">147.23%</text><text x="428" y="76">2026-01-26</text><text x="560" y="76">3.5,3</text><text x="760" y="76">2025-01-01 ~ 2025-12-31</text>
      <line x1="0" y1="94" x2="1520" y2="94" stroke="#EDF2F7"/>
      <text x="16" y="128">600519</text><text x="140" y="128">C3-600519-贵州茅台</text><text x="304" y="128" fill="#15803D">58.20%</text><text x="428" y="128">2026-01-24</text><text x="560" y="128">4,0.92,0.3,1,0,0</text><text x="760" y="128">2024-01-01 ~ 2024-12-31</text>
    </g>
    <rect x="0" y="488" width="1520" height="50" rx="10" fill="#FFFFFF" stroke="#E2E8F0"/>
    <text x="18" y="519" fill="#475569" font-family="Microsoft YaHei, Arial, sans-serif" font-size="14">显示 1-50 条，共 255 条任务</text>
    <rect x="216" y="500" width="96" height="30" rx="5" fill="#FFFFFF" stroke="#CBD5E1"/><text x="236" y="520" fill="#111827" font-family="Microsoft YaHei, Arial, sans-serif" font-size="14">50 / 页</text>
    <rect x="1334" y="500" width="70" height="30" rx="5" fill="#FFFFFF" stroke="#CBD5E1"/><text x="1350" y="520" fill="#475569" font-family="Microsoft YaHei, Arial, sans-serif" font-size="14">上一页</text>
    <rect x="1405" y="500" width="32" height="30" fill="#2563EB"/><text x="1417" y="520" fill="#FFFFFF" font-family="Microsoft YaHei, Arial, sans-serif" font-size="14">1</text>
    <rect x="1438" y="500" width="70" height="30" rx="5" fill="#FFFFFF" stroke="#CBD5E1"/><text x="1454" y="520" fill="#475569" font-family="Microsoft YaHei, Arial, sans-serif" font-size="14">下一页</text>
  </g>
</svg>
